<svg xmlns="http://www.w3.org/2000/svg" width="48" height="48" viewBox="0 0 48 48">
  <defs>
    <linearGradient id="grad" x1="0%" y1="0%" x2="100%" y2="100%">
      <stop offset="0%" style="stop-color:#2563eb;stop-opacity:1" />
      <stop offset="100%" style="stop-color:#4f46e5;stop-opacity:1" />
    </linearGradient>
  </defs>
  
  <!-- Blue-to-indigo gradient background with rounded corners -->
  <rect x="0" y="0" width="48" height="48" rx="10" ry="10" fill="url(#grad)"/>
  
  <!-- White map icon centered -->
  <g transform="translate(12, 12)" stroke="white" stroke-width="2" fill="none">
    <!-- Map paths here -->
    <svg xmlns="http://www.w3.org/2000/svg" width="34" height="34" viewBox="2 3 28 28" fill="none" stroke="#fff" stroke-width="2" stroke-linecap="round" stroke-linejoin="round">
      <path d="m11 19-1.106-.552a2 2 0 0 0-1.788 0l-3.659 1.83A1 1 0 0 1 3 19.381V6.618a1 1 0 0 1 .553-.894l4.553-2.277a2 2 0 0 1 1.788 0l4.212 2.106a2 2 0 0 0 1.788 0l3.659-1.83A1 1 0 0 1 21 4.619V12"/>
      <path d="M15 5.764V12"/>
      <path d="M18 15v6"/>
      <path d="M21 18h-6"/>
      <path d="M9 3.236v15"/>
    </svg>
  </g>
</svg>